<svg xmlns="http://www.w3.org/2000/svg" xmlns:xlink="http://www.w3.org/1999/xlink" viewBox="0 0 376.49 476.53"><defs><style>.cls-1{fill:url(#linear-gradient);}.cls-2{fill:url(#linear-gradient-2);}.cls-3{fill:url(#linear-gradient-3);}.cls-4{fill:url(#linear-gradient-4);}.cls-5{fill:url(#linear-gradient-5);}.cls-6{fill:url(#radial-gradient);}.cls-7{fill:#f2f2f2;}.cls-7,.cls-9{stroke:#70617c;}.cls-30,.cls-7,.cls-8,.cls-9{stroke-miterlimit:10;}.cls-7,.cls-8,.cls-9{stroke-width:3px;}.cls-30,.cls-8,.cls-9{fill:none;}.cls-8{stroke:#b37d7f;}.cls-8,.cls-9{stroke-linecap:round;}.cls-10{fill:url(#linear-gradient-6);}.cls-11{fill:#382d59;}.cls-12{fill:url(#linear-gradient-7);}.cls-13{fill:url(#linear-gradient-8);}.cls-14{fill:url(#linear-gradient-9);}.cls-15{fill:url(#linear-gradient-10);}.cls-16,.cls-17,.cls-18{fill:#605a81;}.cls-16{opacity:0.42;}.cls-17{opacity:0.25;}.cls-18{opacity:0.28;}.cls-19{fill:url(#radial-gradient-2);}.cls-20{fill:url(#linear-gradient-11);}.cls-21{fill:url(#linear-gradient-12);}.cls-22{fill:url(#radial-gradient-3);}.cls-23{fill:url(#linear-gradient-13);}.cls-24{fill:url(#linear-gradient-14);}.cls-25{fill:url(#radial-gradient-4);}.cls-26{fill:url(#linear-gradient-15);}.cls-27{fill:url(#linear-gradient-16);}.cls-28{fill:url(#linear-gradient-17);}.cls-29{fill:url(#linear-gradient-18);}.cls-30{stroke:aqua;}.cls-31{fill:url(#linear-gradient-19);}.cls-32{fill:url(#linear-gradient-20);}.cls-33{fill:url(#linear-gradient-21);}</style><linearGradient id="linear-gradient" x1="266.09" y1="478" x2="266.09" y2="206" gradientUnits="userSpaceOnUse"><stop offset="0" stop-color="#322051"/><stop offset="0.18" stop-color="#211c4a"/><stop offset="0.43" stop-color="#0e1842"/><stop offset="0.7" stop-color="#04163d"/><stop offset="1" stop-color="#00153c"/></linearGradient><linearGradient id="linear-gradient-2" x1="354.86" y1="386.31" x2="408.51" y2="386.31" gradientTransform="matrix(-1, 0, 0, 1, 757.37, 0)" gradientUnits="userSpaceOnUse"><stop offset="0" stop-color="#99bff8"/><stop offset="0.32" stop-color="#97bcf5"/><stop offset="0.54" stop-color="#91b3ed"/><stop offset="0.74" stop-color="#86a3e0"/><stop offset="0.93" stop-color="#778dcc"/><stop offset="1" stop-color="#7082c3"/></linearGradient><linearGradient id="linear-gradient-3" x1="272.96" y1="493.53" x2="272.96" y2="332" gradientTransform="matrix(1, 0, 0, 1, 0, 0)" xlink:href="#linear-gradient-2"/><linearGradient id="linear-gradient-4" x1="152.4" y1="372.9" x2="206.04" y2="372.9" gradientTransform="matrix(1, 0, 0, 1, 0, 0)" xlink:href="#linear-gradient-2"/><linearGradient id="linear-gradient-5" x1="192.75" y1="331.65" x2="363.54" y2="331.65" gradientTransform="matrix(1, 0, 0, 1, 0, 0)" xlink:href="#linear-gradient-2"/><radialGradient id="radial-gradient" cx="280.87" cy="251.14" fx="291.5245098695122" fy="308.4806495756319" r="128.67" gradientTransform="translate(63.89 -58.19) rotate(12.97) scale(1 1.01)" gradientUnits="userSpaceOnUse"><stop offset="0" stop-color="#f8e6d6"/><stop offset="0.03" stop-color="#f7e4d4"/><stop offset="0.28" stop-color="#f1d7c8"/><stop offset="0.51" stop-color="#efd3c4"/><stop offset="0.57" stop-color="#e1beb3"/><stop offset="0.67" stop-color="#cfa49e"/><stop offset="0.76" stop-color="#c49491"/><stop offset="0.82" stop-color="#c08e8d"/></radialGradient><linearGradient id="linear-gradient-6" x1="272.95" y1="69.8" x2="272.95" y2="412.98" gradientUnits="userSpaceOnUse"><stop offset="0" stop-color="#382d59"/><stop offset="0.4" stop-color="#352a56"/><stop offset="0.75" stop-color="#2c1f4d"/><stop offset="1" stop-color="#221242"/></linearGradient><linearGradient id="linear-gradient-7" x1="200.14" y1="170" x2="200.14" y2="371" gradientUnits="userSpaceOnUse"><stop offset="0" stop-color="#382d59"/><stop offset="0.44" stop-color="#362c58"/><stop offset="0.64" stop-color="#2e2954"/><stop offset="0.79" stop-color="#22234d"/><stop offset="0.92" stop-color="#101c44"/><stop offset="1" stop-color="#00153c"/></linearGradient><linearGradient id="linear-gradient-8" x1="159.41" y1="290" x2="159.41" y2="365.01" xlink:href="#linear-gradient-7"/><linearGradient id="linear-gradient-9" x1="385.12" y1="223" x2="385.12" y2="301" xlink:href="#linear-gradient-7"/><linearGradient id="linear-gradient-10" x1="187.32" y1="122.99" x2="187.32" y2="269" gradientTransform="translate(-17.99 18.93) rotate(-5.52)" gradientUnits="userSpaceOnUse"><stop offset="0" stop-color="#382d59"/><stop offset="0.62" stop-color="#332d59"/><stop offset="0.94" stop-color="#2e2d59"/></linearGradient><radialGradient id="radial-gradient-2" cx="278.8" cy="412.94" r="19.21" gradientUnits="userSpaceOnUse"><stop offset="0" stop-color="#f9fcff"/><stop offset="0.24" stop-color="#f4f8fc"/><stop offset="0.53" stop-color="#e6ebf4"/><stop offset="0.84" stop-color="#ced6e7"/><stop offset="0.99" stop-color="#bfc9df"/></radialGradient><linearGradient id="linear-gradient-11" x1="237.09" y1="387.44" x2="237.09" y2="364" gradientUnits="userSpaceOnUse"><stop offset="0" stop-color="#f9fcff"/><stop offset="0.2" stop-color="#e4e9f3"/><stop offset="0.47" stop-color="#cfd7e8"/><stop offset="0.74" stop-color="#c3cde1"/><stop offset="0.99" stop-color="#bfc9df"/></linearGradient><linearGradient id="linear-gradient-12" x1="236.65" y1="369.23" x2="236.65" y2="389" gradientUnits="userSpaceOnUse"><stop offset="0" stop-color="#c6ab99"/><stop offset="0.29" stop-color="#c1a492"/><stop offset="0.73" stop-color="#b39080"/><stop offset="0.99" stop-color="#a88072"/></linearGradient><radialGradient id="radial-gradient-3" cx="315.03" cy="414.79" r="38.45" xlink:href="#radial-gradient-2"/><linearGradient id="linear-gradient-13" x1="240.17" y1="401.84" x2="275.28" y2="436.96" gradientUnits="userSpaceOnUse"><stop offset="0.1" stop-color="#efd3c4"/><stop offset="0.35" stop-color="#eed0c2"/><stop offset="0.51" stop-color="#ebc8bd"/><stop offset="0.64" stop-color="#e5bab3"/><stop offset="0.72" stop-color="#e0acaa"/><stop offset="0.99" stop-color="#e0acaa"/></linearGradient><linearGradient id="linear-gradient-14" x1="406.93" y1="303.56" x2="406.93" y2="375.99" gradientUnits="userSpaceOnUse"><stop offset="0.1" stop-color="#efd3c4"/><stop offset="0.41" stop-color="#e5b8b2"/><stop offset="0.61" stop-color="#e0acaa"/><stop offset="0.82" stop-color="#e0acaa"/><stop offset="0.86" stop-color="#d19e9d"/><stop offset="0.91" stop-color="#c49291"/><stop offset="0.95" stop-color="#c08e8d"/></linearGradient><radialGradient id="radial-gradient-4" cx="199.77" cy="425.91" r="57.35" gradientTransform="translate(0 -74.2) scale(1 1.17)" gradientUnits="userSpaceOnUse"><stop offset="0" stop-color="#99bff8"/><stop offset="0.31" stop-color="#97bcf5"/><stop offset="0.54" stop-color="#91b3ed"/><stop offset="0.74" stop-color="#86a2df"/><stop offset="0.93" stop-color="#778ccc"/><stop offset="1" stop-color="#7082c3"/></radialGradient><linearGradient id="linear-gradient-15" x1="392.55" y1="443.8" x2="392.55" y2="348.85" gradientTransform="matrix(1, 0, 0, 1, 0, 0)" xlink:href="#linear-gradient-2"/><linearGradient id="linear-gradient-16" x1="427.36" y1="331.34" x2="431.01" y2="334.99" gradientUnits="userSpaceOnUse"><stop offset="0.19" stop-color="#e0acaa"/><stop offset="0.78" stop-color="#c89694"/><stop offset="0.95" stop-color="#c08e8d"/></linearGradient><linearGradient id="linear-gradient-17" x1="395" y1="321" x2="402" y2="328" xlink:href="#linear-gradient-16"/><linearGradient id="linear-gradient-18" x1="250.98" y1="67.91" x2="300.09" y2="67.91" gradientUnits="userSpaceOnUse"><stop offset="0" stop-color="#99bff8"/><stop offset="0.36" stop-color="#9cbcf7"/><stop offset="0.62" stop-color="#a4b3f2"/><stop offset="0.84" stop-color="#b3a3eb"/><stop offset="1" stop-color="#c293e4"/></linearGradient><linearGradient id="linear-gradient-19" x1="290.44" y1="39.76" x2="319.79" y2="39.76" gradientUnits="userSpaceOnUse"><stop offset="0" stop-color="#99bff8"/><stop offset="0.28" stop-color="#9eb9f5"/><stop offset="0.64" stop-color="#adaaee"/><stop offset="1" stop-color="#c293e4"/></linearGradient><linearGradient id="linear-gradient-20" x1="315.03" y1="47.78" x2="352.96" y2="47.78" gradientTransform="translate(192.85 -242.79) rotate(60.33)" gradientUnits="userSpaceOnUse"><stop offset="0" stop-color="#99bff8"/><stop offset="0.35" stop-color="#a4b3f3"/><stop offset="0.99" stop-color="#c293e4"/><stop offset="1" stop-color="#c293e4"/></linearGradient><linearGradient id="linear-gradient-21" x1="250" y1="-17" x2="250" y2="-17" xlink:href="#linear-gradient-18"/></defs><g id="hair_back" data-name="hair back"><path class="cls-1" d="M148,206c-2.14,29.29-5.28,53.36-8,71-2.88,18.67-4.46,24.85-8,32-11,22.26-25.74,23.25-39,41C79.12,368.59,74.74,395,80,416.58c11.12,45.79,60.84,60.8,63,61.42H431a64.19,64.19,0,0,0,9.77-10.36A61.78,61.78,0,0,0,450,449.48c4.85-14.34,5.3-32.1,3-44.48-6.27-33.78-36.24-45.28-54-70.68-14.2-20.31-25.42-56.4-5-125Z" transform="translate(-77.85 -17)"/></g><g id="sweater_base" data-name="sweater base"><path class="cls-2" d="M351.9,349.42c5.29-2.42,17.86,16.05,43,53,.45.65,10.08,15,7,18-2.43,2.41-10.26-4.82-20-2-5.55,1.6-6.3,4.9-9,5C360.39,423.87,341.42,354.22,351.9,349.42Z" transform="translate(-77.85 -17)"/><path class="cls-3" d="M206,332a514.13,514.13,0,0,0-31,93c-6.46,28.07-5.4,34.51-3,40,7.73,17.67,61.12,33.63,131,27,35.15-3.33,60.33-6.07,70-24,2.68-5,5.42-13.44-2-45a353.43,353.43,0,0,0-28-77,163.23,163.23,0,0,1-52,9C250.81,355.31,220.55,340.47,206,332Z" transform="translate(-77.85 -17)"/><path class="cls-4" d="M203,336c-5.28-2.42-17.86,16.05-43,53-.44.65-10.07,15-7,18,2.44,2.41,10.26-4.82,20-2,5.55,1.6,6.3,4.9,9,5C194.51,410.45,213.48,340.8,203,336Z" transform="translate(-77.85 -17)"/><path class="cls-5" d="M202,305c-1.66,1.12-7.69,5.17-9,12-1.38,7.17,3.2,13.51,5,16,9.92,13.73,41.91,27.33,94,28,31.68.41,60.61.78,69-16,4-8,3.5-20.1-3-27-13.29-14.11-37.36,8.93-79,4C241.85,317.6,218.09,294.17,202,305Z" transform="translate(-77.85 -17)"/></g><g id="face"><path class="cls-6" d="M174,280c16.47,25.9,38.92,37.79,51,44,8.41,4.32,72.66,36.09,126,3,19.68-12.21,29.84-28.26,34-35,22.93-37.14,22.53-84.61,5-122-4.68-10-27.82-56-80-70-53.19-14.27-117,10-143,63C148.05,201.58,153.14,247.18,174,280Z" transform="translate(-77.85 -17)"/><ellipse class="cls-7" cx="223" cy="234.5" rx="14.5" ry="9" transform="translate(-169.43 293.37) rotate(-60)"/><ellipse class="cls-7" cx="333.09" cy="253.09" rx="9" ry="14.5" transform="translate(-117.99 47.14) rotate(-10.38)"/><path class="cls-8" d="M269,267a11.68,11.68,0,0,0,6,6c4.23,1.73,9.36.55,13-3" transform="translate(-77.85 -17)"/><path class="cls-9" d="M213.5,200.5a49.28,49.28,0,0,1,28-8" transform="translate(-77.85 -17)"/><path class="cls-9" d="M348.35,223.1a49.25,49.25,0,0,0-25.06-14.84" transform="translate(-77.85 -17)"/></g><g id="hair_front" data-name="hair front"><path class="cls-10" d="M256,154a179.75,179.75,0,0,0,4,64,87,87,0,0,0,59,14c-3.44-8.62-8.71-25.57-5-46a80,80,0,0,1,6-19,79.36,79.36,0,0,0,7,34c14.63,32.09,46.52,42.94,53,45a118,118,0,0,0-1,40c4.34,28.93,19.84,49.35,42,79,12.14,16.24,29.7,37.14,32,40a170.14,170.14,0,0,0-16-61c-5.86-12.27-9.43-15.83-14-26-12.53-27.87-9.08-53-8-73,1.27-23.67,3.82-71.17-12-104C377,87.07,292.72,54.53,231,77c-71.21,25.93-109.06,121.9-105,174,.85,10.93,4.83,36.43-8,63-10.06,20.82-26.59,34.34-25,36,1.34,1.4,14.38-6.87,26-19,26.6-27.76,32.36-61.75,35-61,2.09.59-5.41,20.75-2,48,1.44,11.49,2.78,22.24,10,33,12,17.87,27.49,16.85,30,29,3.14,15.21-18.79,28.17-16,32,3.6,4.94,45.4-9.39,47-30,1.07-13.86-17.05-17.42-29-40-7.58-14.32-6-34.08-4-73,1.05-20.59,1.58-30.89,4-43a194.88,194.88,0,0,1,28-68,74.56,74.56,0,0,0,0,54l9,1a110,110,0,0,1,25-59Z" transform="translate(-77.85 -17)"/><path class="cls-11" d="M-31-51" transform="translate(-77.85 -17)"/><path class="cls-12" d="M179,200.64c-5.43,21.15-1.66,39.08,0,46.57,1.93,8.73,6,17.38,14,34.32,16.07,34,21.33,38.78,22,51.48.44,8.36-1,21.28-12,38,16.08-13.33,20.28-25.47,21-34.32,1.32-16.19-8.87-23.2-21-56.38A261.25,261.25,0,0,1,191,235c-2.45-14.67-3.68-36.35,3-65A82,82,0,0,0,179,200.64Z" transform="translate(-77.85 -17)"/><path class="cls-13" d="M158,290c-2.5,2.09-22.3,19.11-20,43,.4,4.13,1.5,15.6,11,24,12.82,11.33,30.06,7.47,32,7-4.36-.69-18.86-3.55-28-16C141.64,332.54,143.13,308.55,158,290Z" transform="translate(-77.85 -17)"/><path class="cls-14" d="M377,223c.75.12-3.39,12.9-1,30,2.88,20.59,13.73,36.64,24,48-7.54-4.33-19.95-13-26-28C364.46,249.37,375.91,222.83,377,223Z" transform="translate(-77.85 -17)"/><path class="cls-15" d="M195.24,121.89c-1.06-.52-31,34.53-30.84,80.18.12,38.79,21.91,68,24.13,67.14,2.45-.91-20.9-37.93-8.59-77.46,8-25.79,27.94-44.35,26.47-45.57s-22.28,24.1-26.61,21.32C174.36,164,196.34,122.44,195.24,121.89Z" transform="translate(-77.85 -17)"/><path class="cls-16" d="M198,119c-2.23-2-26.8,13.57-38,41-9.1,22.3-6.65,45.79-5,46,.71.09,1.54-4.14,4-13a379.64,379.64,0,0,1,14-41,57.84,57.84,0,0,0,12,39c-3.14-9.5-5.78-22.53-3-37C186.14,132.49,199.79,120.57,198,119Z" transform="translate(-77.85 -17)"/><path class="cls-17" d="M281,134c-8,8.06-11.21,19.25-8,29,.29.89,4.68,13.54,16,16,8.45,1.84,15.73-3.1,20-6a38,38,0,0,0,10-10,52.09,52.09,0,0,0-7,51,52.53,52.53,0,0,0-15-22c-6.86-5.87-21.57-15.18-28-10-4.56,3.67-2.93,13-2,17-2-5.08-7.95-22.34-1-42A59.11,59.11,0,0,1,281,134Z" transform="translate(-77.85 -17)"/><path class="cls-18" d="M341,171c-1.94,1.34,2,11.21,7,20a106.73,106.73,0,0,0,20,25c-1.66-1.43-11.19-10-11-23a27.79,27.79,0,0,1,3-12,49.72,49.72,0,0,1,33,56,87.44,87.44,0,0,0,6-28c.5-11.07-1.27-19.27-3-27-2.39-10.67-5.66-24.66-16-39a85.63,85.63,0,0,0-15-16,176,176,0,0,1,10,22c2.43,6.5,12.61,33.7,7,37-3.48,2-11.89-5.74-16-11a39.18,39.18,0,0,1-8-22c-.13,11.33-1.45,21.75-6,23C347.75,177.17,342.8,169.76,341,171Z" transform="translate(-77.85 -17)"/></g><g id="tea"><path class="cls-19" d="M280.33,392.05a15.28,15.28,0,0,0-10.57,1.17c-7.43,4.08-7.69,14.08-7.76,16.78-.05,1.94-.37,14.47,10,21a22.42,22.42,0,0,0,23.61-.17l-4.7-3.52A17,17,0,0,1,278,426c-6-3.36-7.57-9.35-8-11-1.63-6.25-.43-15.1,4.46-17.07a7,7,0,0,1,4.7,0Z" transform="translate(-77.85 -17)"/><ellipse class="cls-20" cx="237.09" cy="375.72" rx="36.83" ry="11.72"/><ellipse class="cls-21" cx="236.65" cy="379.11" rx="33.5" ry="9.89"/><path class="cls-22" d="M278.21,392.16a36.53,36.53,0,0,0,1.22,22c5.8,14.66,21.76,24.15,37.86,23.21,15.37-.91,29.66-11.25,34.19-25.65a35.5,35.5,0,0,0,.28-19.54,83.3,83.3,0,0,1-73.55,0Z" transform="translate(-77.85 -17)"/></g><g id="arms"><path class="cls-23" d="M244.45,397.57c.79-.82,8.11-8.23,15.16-6.23.69.2,4.36,1.24,5.05,3.79.63,2.35-1.73,4.21-1,5.4,1,1.57,5.44-1.3,8.88,0,5.33,2,5.83,12.73,5.93,14.81.14,3.12.72,24.46-13.33,29.62-8.55,3.14-17.14-1.69-19.25-3a50.5,50.5,0,0,0-1.48-44.43Z" transform="translate(-77.85 -17)"/><path class="cls-24" d="M379.79,353.39c-3.14-7.89-2-14.72,0-26.22,1-5.92,2.52-9.92,5.43-10.85a4.13,4.13,0,0,1,2.71,0c4.45,1.66,3.2,11.36,5.43,11.76,1.18.21,2.53-2.34,5.42-8.14,5.88-11.8,7.41-15.58,10.85-16.28a6.28,6.28,0,0,1,4.53.91c4.23,3.06,1.28,11.74,3.61,12.65s5.81-7.78,10-7.23c3.53.47,6.83,7.5,6.33,13.56-.4,4.8-3.18,8.86-1.81,9.95.75.6,1.83-.45,2.71,0,2.35,1.18.59,11.45-3.61,20.8s-8.11,18-16.28,20.8C402.3,379.44,385.35,367.36,379.79,353.39Z" transform="translate(-77.85 -17)"/><path class="cls-25" d="M149.83,406c-8.79,9.28-11.84,25.73-6,37,7.78,15,29,15.76,63,17,24.59.9,39.57,1.23,47.17-9,6.93-9.31,4.63-23.2,3-33s-3-18-9.17-23c-7.9-6.42-17.32-2.94-41,1C167,402.6,159.12,396.16,149.83,406Z" transform="translate(-77.85 -17)"/><path class="cls-26" d="M375,349c3.86-.89,5.09,2,26,13,19.86,10.48,22.21,9.73,25,14,9.49,14.53-2.67,46.32-26,60-5.56,3.26-19.44,11.4-30,6C345.72,429.59,356.28,353.31,375,349Z" transform="translate(-77.85 -17)"/><path class="cls-27" d="M428,332c-3.31,4-5.31,5.55-5,6s2-.06,9-4c1.6-6.34,1.44-7.82,1-8C432.39,325.76,431.31,328,428,332Z" transform="translate(-77.85 -17)"/><path class="cls-28" d="M393,328l3,6c.33-1.33.66-2.66,1-4q1.94-7.62,4-15a36.43,36.43,0,0,1-8,13Z" transform="translate(-77.85 -17)"/></g><g id="plant"><path class="cls-29" d="M266.52,38.77c-6.44-1.63-15.07-2.38-15.52-.77-.64,2.29,16.77,4.49,30,19,2.83,3.1,10.34,11.55,11.89,23.72,1.31,10.23-2.29,17.62-1.19,18,1.3.42,8.35-9.51,8.39-21.58,0-15-10.8-25.3-13.19-27.57A44.43,44.43,0,0,0,266.52,38.77Z" transform="translate(-77.85 -17)"/><path class="cls-30" d="M219.5-12.5" transform="translate(-77.85 -17)"/><path class="cls-31" d="M293.77,62.53c-.68-1.36-7.15-14.74,0-28.62,7.93-15.39,25.11-16.85,26-16.91a62,62,0,0,1-1.3,11.71c-1.18,5.62-3.34,15.95-11.71,24.71A41.07,41.07,0,0,1,293.77,62.53Z" transform="translate(-77.85 -17)"/><path class="cls-32" d="M293.77,62.53a28.21,28.21,0,0,1,29.92-2.6c12,6.39,14.11,19.42,14.31,20.81a23,23,0,0,0-9.11-6.5c-8.42-3.19-14.11,1-22.11-1.3C303.2,71.9,298.45,69.35,293.77,62.53Z" transform="translate(-77.85 -17)"/><path class="cls-33" d="M250-17" transform="translate(-77.85 -17)"/></g></svg>